<svg xmlns="http://www.w3.org/2000/svg" viewBox="0 0 100 100" width="512" height="512"><g fill="none" stroke="#8B5E3C" stroke-width="9" stroke-linecap="round"><path d="M20.66 56.24 A30 30 0 0 1 70.07 27.71"></path><path d="M79.34 43.76 A30 30 0 0 1 29.93 72.29"></path></g><polygon points="81.2,37.75 65.39,32.91 74.75,22.51" fill="#8B5E3C"></polygon><polygon points="18.8,62.25 34.61,67.09 25.25,77.49" fill="#C79049"></polygon><path d="M50 41 C46 38.5 41 38 36.5 39 L36.5 58 C41 57 46 57.5 50 60 C54 57.5 59 57 63.5 58 L63.5 39 C59 38 54 38.5 50 41 Z" fill="#8B5E3C"></path></svg>